<svg xmlns="http://www.w3.org/2000/svg" viewBox="0 0 522.31 418">
  <g id="particles">
    <path fill="#6f9ee0" d="M161.35,118.67v14.34c0,2.37-.49,2.87-2.8,2.87-9.31,0-18.62,0-27.93,0-2.35,0-2.87-.51-2.87-2.81v-28.49c0-2.61.43-3.04,3.02-3.05,9.31,0,18.62,0,27.93.01,2.21,0,2.64.43,2.64,2.59v14.52h0v.02Z"></path>
    <path fill="#aac6ee" d="M135.96,171.38c0,4.53,0,9.06,0,13.58,0,2.2-.54,2.74-2.76,2.74-8.93,0-17.86,0-26.79,0-2.04,0-2.58-.52-2.59-2.51-.02-9.18,0-18.36-.02-27.54,0-1.77.83-2.41,2.52-2.41,9.06,0,18.11-.02,27.17-.02,2.05,0,2.48.46,2.49,2.56,0,4.53,0,9.06,0,13.58h0v.02Z"></path>
    <path fill="#aac6ee" d="M136.66,251.83c0,4.34,0,8.69,0,13.03,0,2.09-.55,2.62-2.67,2.62-8.81.01-17.62.01-26.43,0-2.08,0-2.55-.47-2.55-2.49,0-8.75-.01-17.5,0-26.25,0-2.54.34-2.88,2.93-2.88,8.69,0,17.37,0,26.06,0,2.29,0,2.67.4,2.67,2.75v13.22h0Z"></path>
    <path fill="#6f9ee0" d="M201.18,79.17c0,4.34,0,8.68,0,13.02,0,2.11-.53,2.62-2.67,2.62-8.68.02-17.36.02-26.04.01-2.06,0-2.56-.49-2.57-2.49v-26.42c0-2.15.39-2.56,2.46-2.56,8.74,0,17.49,0,26.23,0,2.24,0,2.59.36,2.59,2.6,0,4.4,0,8.81,0,13.21h0Z"></path>
    <path fill="#aac6ee" d="M142.32,207.51c0-3.85.04-7.7-.02-11.54-.02-1.66.64-2.36,2.31-2.36,7.63.03,15.27.03,22.9-.03,1.69,0,2.34.71,2.33,2.34-.03,7.76-.03,15.52-.02,23.28,0,1.5-.72,2.1-2.18,2.09-7.7-.02-15.39-.02-23.09,0-1.57,0-2.27-.69-2.25-2.25.03-3.85,0-7.7,0-11.55h0l.02.02Z"></path>
    <path fill="#aac6ee" d="M105.09,211.52c0-3.6.05-7.2-.02-10.8-.03-1.73.63-2.51,2.39-2.5,7.32.02,14.65.02,21.97-.02,1.7,0,2.3.78,2.29,2.4-.05,7.32-.07,14.65-.04,21.97,0,1.76-.73,2.43-2.46,2.42-7.2-.04-14.4,0-21.6,0-2.12,0-2.53-.4-2.53-2.47-.01-3.66,0-7.32,0-10.99h.02-.02Z"></path>
    <path fill="#6f9ee0" d="M156.75,283.13c0-3.66.04-7.33-.02-10.99-.02-1.76.75-2.44,2.47-2.43,7.2.04,14.4.05,21.6.01,1.74,0,2.48.67,2.47,2.42-.05,7.39-.05,14.78-.03,22.16,0,1.67-.74,2.32-2.38,2.31-7.26-.03-14.53-.02-21.79.01-1.63,0-2.38-.63-2.36-2.32.06-3.72.02-7.45.02-11.17h.02Z"></path>
    <path fill="#aac6ee" d="M123.04,291.33c0-3.23.05-6.45-.02-9.68-.04-1.73.62-2.5,2.39-2.49,6.45.03,12.91.02,19.36-.02,1.6-.01,2.23.7,2.22,2.25-.03,6.58-.04,13.16,0,19.73,0,1.76-.72,2.42-2.46,2.41-6.33-.06-12.66-.02-18.99-.03-2.14,0-2.51-.39-2.52-2.49-.01-3.23,0-6.45,0-9.68h.02Z"></path>
    <path fill="#6f9ee0" d="M212.33,85.91c0-3.28.05-6.57-.02-9.85-.03-1.57.51-2.26,2.14-2.25,6.45.04,12.89.02,19.34-.02,1.47-.01,2.16.5,2.15,2.05-.04,6.63-.07,13.26,0,19.89.02,1.8-.68,2.39-2.42,2.37-6.32-.06-12.64-.06-18.96,0-1.71.02-2.3-.67-2.25-2.33.08-3.28.02-6.57.02-9.85h.02-.02Z"></path>
    <path fill="#6f9ee0" d="M191.76,137.66c0,3.04-.04,6.08.02,9.12.03,1.58-.62,2.25-2.21,2.24-5.89-.04-11.78-.04-17.67,0-1.67,0-2.33-.69-2.32-2.34.04-6.01.04-12.03,0-18.04,0-1.51.71-2.17,2.14-2.17h18.04c1.41,0,2.01.71,2,2.08-.02,3.04,0,6.08,0,9.12h0Z"></path>
    <path fill="#3f78d0" d="M306.25,49.69c0,3.04-.04,6.07.02,9.11.03,1.42-.51,2.02-1.96,2.01-6.07-.04-12.15-.04-18.22-.02-1.25,0-1.8-.51-1.79-1.78.02-6.26.02-12.52,0-18.78,0-1.32.55-1.91,1.9-1.91,6.07.02,12.15,0,18.22-.03,1.34,0,1.9.57,1.89,1.91-.04,3.16-.01,6.32-.01,9.48h-.05Z"></path>
    <path fill="#3f78d0" d="M263.58,79.15c0-2.73.06-5.45-.02-8.18-.05-1.71.52-2.49,2.35-2.47,5.33.07,10.66.06,15.99,0,1.55-.02,2.07.64,2.06,2.12-.05,5.58-.06,11.15-.02,16.73.01,1.53-.59,2.09-2.1,2.07-5.39-.04-10.78-.03-16.17.02-1.53.01-2.11-.63-2.08-2.12.06-2.73.02-5.45.02-8.18h-.03Z"></path>
    <path fill="#3f78d0" d="M255.48,58.16c0,2.66-.05,5.33.02,7.99.04,1.48-.49,2.15-2.04,2.14-5.2-.05-10.41-.05-15.62-.02-1.42,0-2-.53-1.99-1.98.05-5.33.05-10.66,0-15.99,0-1.58.56-2.24,2.18-2.23,5.2.05,10.41.03,15.62,0,1.36,0,1.89.57,1.87,1.9-.04,2.73,0,5.45,0,8.18h-.03Z"></path>
    <path fill="#6f9ee0" d="M166.93,165.76c0,2.61-.03,5.21,0,7.82.02,1.33-.55,1.96-1.87,1.96h-15.82c-1.23,0-1.77-.61-1.77-1.86.02-5.27.03-10.55,0-15.82,0-1.51.68-2.12,2.15-2.11,5.09.03,10.18.04,15.26,0,1.55,0,2.07.71,2.04,2.17-.06,2.6-.02,5.21-.02,7.82h0v.02Z"></path>
    <path fill="#6f9ee0" d="M193.77,111.94c0-2.42.04-4.84-.02-7.26-.04-1.4.49-2.09,1.93-2.09,4.84.02,9.68.03,14.51.01,1.35,0,1.86.61,1.85,1.94-.04,5.02-.05,10.05,0,15.07,0,1.38-.58,1.88-1.9,1.87-4.78-.02-9.55-.03-14.33.02-1.52.01-2.11-.64-2.08-2.13.06-2.48.02-4.96.02-7.44h.03Z"></path>
    <path fill="#6f9ee0" d="M164.98,247.35c0,2.17-.03,4.34,0,6.5.02,1.32-.55,1.93-1.89,1.93-4.27-.02-8.55,0-12.82,0-1.31,0-1.94-.54-1.93-1.88.02-4.4,0-8.8,0-13.19,0-1.39.61-2.05,2.02-2.05,4.21,0,8.42-.02,12.64-.06,1.43,0,2.01.68,2,2.05-.02,2.23,0,4.46,0,6.69h-.01Z"></path>
    <path fill="#6f9ee0" d="M148.97,317.54c0-2.04.03-4.09,0-6.13-.03-1.3.48-1.98,1.83-1.97,4.03,0,8.05,0,12.08-.02,1.25,0,1.8.58,1.79,1.81-.02,4.15-.04,8.3,0,12.45,0,1.48-.7,1.95-2.06,1.93-3.96-.03-7.93-.03-11.89,0-1.27.01-1.79-.48-1.75-1.76.06-2.1.02-4.21.02-6.32h-.01Z"></path>
    <path fill="#3f78d0" d="M318.59,61.41c0-1.55.03-3.1-.01-4.64-.03-1.17.45-1.72,1.64-1.71,2.85.02,5.7.03,8.55-.02,1.2-.02,1.67.47,1.66,1.65-.04,3.1-.04,6.19-.01,9.29,0,1.11-.47,1.58-1.55,1.58-2.97-.01-5.95-.02-8.92,0-1.06,0-1.4-.51-1.37-1.5.04-1.55.01-3.1.01-4.64h0Z"></path>
    <path fill="#3f78d0" d="M301.96,79.54c-.01-3.87,1.91-5.8,5.76-5.81h.19c3.49,0,5.25,1.72,5.27,5.15,0,1.61-.07,3.23-.01,4.84.04,1.16-.36,1.74-1.58,1.73-2.73-.03-5.46-.02-8.19.02-1.03.01-1.46-.45-1.44-1.46.03-1.49,0-2.98,0-4.47Z"></path>
    <path fill="#2456b8" d="M336.51,96.54c.01-3.73,1.86-5.59,5.54-5.58,1.3,0,2.61.01,3.91-.01,1.06-.02,1.61.39,1.6,1.53-.03,2.85.07,5.71-.06,8.56-.02.51-.88,1.37-1.39,1.4-2.72.14-5.45.06-8.18.08-1.05,0-1.43-.51-1.41-1.5.02-1.49,0-2.98,0-4.47h-.01Z"></path>
    <path fill="#2456b8" d="M347.98,75.79c-.01,3.71-1.85,5.57-5.52,5.58-1.3,0-2.61-.03-3.91.01-1.05.03-1.64-.31-1.63-1.48.03-2.79.03-5.59.02-8.38,0-1.21.6-1.63,1.74-1.63,2.55.01,5.09,0,7.64-.06,1.18-.02,1.71.46,1.68,1.66-.04,1.43,0,2.86,0,4.28l-.02.02Z"></path>
    <path fill="#aac6ee" d="M120.33,139.02c.02,3.23-1.57,4.86-4.77,4.89-4.8.04-4.83.04-4.82-4.77.01-5.86-.71-5.09,4.95-5.13,4.6-.03,4.6,0,4.64,4.64v.37h0Z"></path>
    <path fill="#2456b8" d="M366.17,86.26c.01,3.18-1.57,4.77-4.76,4.78-3.03,0-4.54-1.53-4.55-4.59,0-3.42,1.69-5.13,5.06-5.14,2.83,0,4.24,1.4,4.24,4.21v.74h.01Z"></path>
    <path fill="#3f78d0" d="M254.77,86.27c.01,3.13-1.57,4.71-4.76,4.73-3.06.02-4.6-1.48-4.62-4.49-.03-3.43,1.63-5.15,4.98-5.18,2.93-.03,4.39,1.44,4.4,4.39v.56h0Z"></path>
  </g>
  <g id="mark">
    <path fill="#2456b8" d="M168.67,353.46c32.01-76.26,64.03-152.51,96.04-228.77.14.04.29.08.43.11,1.26,7.62,2.53,15.24,3.79,22.85,3.18,19.15,6.38,38.3,9.48,57.46.24,1.49.04,3.23-.49,4.65-6.89,18.61-13.84,37.2-20.86,55.76-4.52,11.95-9.17,23.86-13.79,35.77-.21.54-.63,1.08-1.1,1.41-17.84,12.5-35.7,24.98-53.56,37.46-6.26,4.37-12.51,8.75-18.77,13.13-.23.16-.49.28-.73.42-.15-.09-.3-.18-.46-.27l.02.02Z"></path>
    <path fill="#1f4aa0" d="M192.24,344.06c57.86-40.58,115.72-81.16,173.72-121.84-2.63-4.4-5.3-8.85-8.12-13.57h49.85c-7.31,16.8-14.57,33.48-21.98,50.49-2.41-4.26-4.66-8.24-7-12.39-61.87,33.06-123.13,67.14-186.46,97.31h-.01Z"></path>
    <path fill="#193c82" d="M390.75,353.99c-.84.06-1.37.12-1.91.12-16.82.01-33.63,0-50.45.04-1.28,0-1.96-.31-2.46-1.61-8.17-21.24-16.38-42.46-24.65-63.65-.66-1.69-.4-2.4,1.22-3.25,13.45-7.07,26.85-14.24,40.27-21.38.64-.34,1.32-.62,2.15-1.01,11.96,30.27,23.86,60.4,35.84,90.73h0Z"></path>
    <path fill="#1f4aa0" d="M337.69,225.17c-3.78,2.56-7.39,4.97-10.96,7.44-.84.58-1.45.56-2.32.03-13.96-8.57-27.94-17.1-41.89-25.68-.53-.33-1.01-1.09-1.11-1.71-4.48-26.75-8.91-53.51-13.34-80.26-.16-.98-.27-1.96-.44-3.23h1.82c8.51,0,17.01,0,25.52-.04,1.21,0,1.84.3,2.32,1.52,13.21,33.39,26.48,66.77,39.73,100.15.23.57.44,1.15.68,1.81v-.03Z"></path>
    <path fill="#193c82" d="M322.23,234.67c-8.34,6.06-16.36,11.89-24.55,17.84-5.28-14.14-10.5-28.1-15.94-42.66,13.71,8.4,26.96,16.52,40.5,24.82h-.01Z"></path>
    <path fill="#2456b8" d="M234.14,326.83c-1.55,4.03-2.92,7.59-4.28,11.17-1.88,4.92-3.77,9.84-5.61,14.78-.34.92-.74,1.38-1.83,1.37-14.45-.04-28.89-.04-43.34-.05-.05,0-.1-.07-.18-.14,18.27-8.97,36.52-17.93,55.25-27.13h-.01Z"></path>
  </g>
</svg>